REM DIRINDEX 1\2,1\3,1\4,1\5
REM DIRNAME "folder01","folder02","folder03","folder04","folder05"
TITLE ""
FILE "1Q_t_1539-1548.mp3" MP3
  TRACK 01 AUDIO
    TITLE "3:cjc172_5602"
    INDEX 01 00:00:00
  TRACK 02 AUDIO
    TITLE "0:"
    INDEX 01 00:01:23
  TRACK 03 AUDIO
    TITLE "4:cjc172_5603"
    INDEX 01 00:01:29
  TRACK 04 AUDIO
    TITLE "0:"
    INDEX 01 00:03:30
  TRACK 05 AUDIO
    TITLE "5:cjc172_5604"
    INDEX 01 00:03:36
  TRACK 06 AUDIO
    TITLE "0:"
    INDEX 01 00:08:06
  TRACK 07 AUDIO
    TITLE "3:cjc172_5605"
    INDEX 01 00:08:51
  TRACK 08 AUDIO
    TITLE "0:"
    INDEX 01 00:10:09
  TRACK 09 AUDIO
    TITLE "4:cjc172_5606"
    INDEX 01 00:10:19
  TRACK 10 AUDIO
    TITLE "0:"
    INDEX 01 00:12:08
  TRACK 11 AUDIO
    TITLE "5:cjc172_5607"
    INDEX 01 00:12:13
  TRACK 12 AUDIO
    TITLE "0:"
    INDEX 01 00:17:46
  TRACK 13 AUDIO
    TITLE "3:cjc172_5608"
    INDEX 01 00:18:16
  TRACK 14 AUDIO
    TITLE "0:"
    INDEX 01 00:19:41
  TRACK 15 AUDIO
    TITLE "4:cjc172_5609"
    INDEX 01 00:19:51
  TRACK 16 AUDIO
    TITLE "0:"
    INDEX 01 00:22:30
  TRACK 17 AUDIO
    TITLE "5:cjc172_5610"
    INDEX 01 00:22:35
  TRACK 18 AUDIO
    TITLE "0:"
    INDEX 01 00:28:03
  TRACK 19 AUDIO
    TITLE "3:cjc172_5611"
    INDEX 01 00:28:46
  TRACK 20 AUDIO
    TITLE "0:"
    INDEX 01 00:29:73
  TRACK 21 AUDIO
    TITLE "4:cjc172_5612"
    INDEX 01 00:30:07
  TRACK 22 AUDIO
    TITLE "0:"
    INDEX 01 00:33:06
  TRACK 23 AUDIO
    TITLE "5:cjc172_5613"
    INDEX 01 00:33:12
  TRACK 24 AUDIO
    TITLE "0:"
    INDEX 01 00:38:09
  TRACK 25 AUDIO
    TITLE "3:cjc172_5614"
    INDEX 01 00:38:52
  TRACK 26 AUDIO
    TITLE "0:"
    INDEX 01 00:40:08
  TRACK 27 AUDIO
    TITLE "4:cjc172_5615"
    INDEX 01 00:40:18
  TRACK 28 AUDIO
    TITLE "0:"
    INDEX 01 00:41:27
  TRACK 29 AUDIO
    TITLE "5:cjc172_5616"
    INDEX 01 00:41:33
  TRACK 30 AUDIO
    TITLE "0:"
    INDEX 01 00:46:46
  TRACK 31 AUDIO
    TITLE "3:cjc172_5617"
    INDEX 01 00:47:16
  TRACK 32 AUDIO
    TITLE "0:"
    INDEX 01 00:48:43
  TRACK 33 AUDIO
    TITLE "4:cjc172_5618"
    INDEX 01 00:48:49
  TRACK 34 AUDIO
    TITLE "0:"
    INDEX 01 00:49:48
  TRACK 35 AUDIO
    TITLE "5:cjc172_5619"
    INDEX 01 00:49:56
  TRACK 36 AUDIO
    TITLE "0:"
    INDEX 01 00:55:37
  TRACK 37 AUDIO
    TITLE "3:cjc172_5620"
    INDEX 01 00:56:03
  TRACK 38 AUDIO
    TITLE "0:"
    INDEX 01 00:57:16
  TRACK 39 AUDIO
    TITLE "4:cjc172_5621"
    INDEX 01 00:57:22
  TRACK 40 AUDIO
    TITLE "0:"
    INDEX 01 00:59:39
  TRACK 41 AUDIO
    TITLE "5:cjc172_5622"
    INDEX 01 00:59:44
  TRACK 42 AUDIO
    TITLE "0:"
    INDEX 01 01:04:01
  TRACK 43 AUDIO
    TITLE "3:cjc172_5623"
    INDEX 01 01:04:48
  TRACK 44 AUDIO
    TITLE "0:"
    INDEX 01 01:05:55
  TRACK 45 AUDIO
    TITLE "4:cjc172_5624"
    INDEX 01 01:05:63
  TRACK 46 AUDIO
    TITLE "0:"
    INDEX 01 01:08:36
  TRACK 47 AUDIO
    TITLE "5:cjc172_5625"
    INDEX 01 01:08:41
  TRACK 48 AUDIO
    TITLE "0:"
    INDEX 01 01:14:32
  TRACK 49 AUDIO
    TITLE "3:cjc172_5626"
    INDEX 01 01:15:02
  TRACK 50 AUDIO
    TITLE "0:"
    INDEX 01 01:16:33
  TRACK 51 AUDIO
    TITLE "4:cjc172_5627"
    INDEX 01 01:16:41
  TRACK 52 AUDIO
    TITLE "0:"
    INDEX 01 01:17:54
  TRACK 53 AUDIO
    TITLE "5:cjc172_5628"
    INDEX 01 01:17:60
  TRACK 54 AUDIO
    TITLE "0:"
    INDEX 01 01:22:49
  TRACK 55 AUDIO
    TITLE "3:cjc172_5629"
    INDEX 01 01:23:17
  TRACK 56 AUDIO
    TITLE "0:"
    INDEX 01 01:24:25
  TRACK 57 AUDIO
    TITLE "4:cjc172_5630"
    INDEX 01 01:24:33
  TRACK 58 AUDIO
    TITLE "0:"
    INDEX 01 01:25:34
  TRACK 59 AUDIO
    TITLE "5:cjc172_5631"
    INDEX 01 01:25:42
  TRACK 60 AUDIO
    TITLE "0:"
    INDEX 01 01:31:11
